<svg id="visual" viewBox="0 0 960 540" width="960" height="540" xmlns="http://www.w3.org/2000/svg" xmlns:xlink="http://www.w3.org/1999/xlink" version="1.1"><rect x="0" y="0" width="960" height="540" fill="#FFFFFF"></rect><path d="M0 161L20 164.5C40 168 80 175 120 181.3C160 187.7 200 193.3 240 190.2C280 187 320 175 360 166.2C400 157.3 440 151.7 480 150.5C520 149.3 560 152.7 600 160C640 167.3 680 178.7 720 179.3C760 180 800 170 840 170.8C880 171.7 920 183.3 940 189.2L960 195L960 0L940 0C920 0 880 0 840 0C800 0 760 0 720 0C680 0 640 0 600 0C560 0 520 0 480 0C440 0 400 0 360 0C320 0 280 0 240 0C200 0 160 0 120 0C80 0 40 0 20 0L0 0Z" fill="#C9C78B"></path></svg>